<svg width="45" height="45" viewBox="0 0 45 45" fill="none" xmlns="http://www.w3.org/2000/svg">
<path d="M22.5 45C34.9264 45 45 34.9264 45 22.5C45 10.0736 34.9264 0 22.5 0C10.0736 0 0 10.0736 0 22.5C0 34.9264 10.0736 45 22.5 45Z" fill="#22C55E"/>
<path d="M12 31.5C12 31.5 13.5 16.5 22.5 10.5C31.5 16.5 33 31.5 33 31.5" stroke="#F0FDF4" stroke-width="2.25" stroke-linecap="round" stroke-linejoin="round"/>
<path d="M22.5 10.5V28.5" stroke="#F0FDF4" stroke-width="1.875" stroke-linecap="round"/>
<path d="M22.5 16.5L16.5 21" stroke="#F0FDF4" stroke-width="1.5" stroke-linecap="round"/>
<path d="M22.5 21L15 25.5" stroke="#F0FDF4" stroke-width="1.5" stroke-linecap="round"/>
<path d="M22.5 16.5L28.5 21" stroke="#F0FDF4" stroke-width="1.5" stroke-linecap="round"/>
<path d="M22.5 21L30 25.5" stroke="#F0FDF4" stroke-width="1.5" stroke-linecap="round"/>
</svg>
