<svg width="95" height="29" viewBox="0 0 95 29" fill="none" xmlns="http://www.w3.org/2000/svg">
<path d="M4.67045 5.54545L8.8892 18.8068H9.05114L13.2784 5.54545H17.3693L11.3523 23H6.59659L0.571023 5.54545H4.67045ZM23.8913 23.2557C22.5447 23.2557 21.3857 22.983 20.4141 22.4375C19.4482 21.8864 18.7038 21.108 18.1811 20.1023C17.6584 19.0909 17.397 17.8949 17.397 16.5142C17.397 15.1676 17.6584 13.9858 18.1811 12.9688C18.7038 11.9517 19.4396 11.1591 20.3885 10.5909C21.343 10.0227 22.4624 9.73864 23.7464 9.73864C24.6101 9.73864 25.4141 9.87784 26.1584 10.1562C26.9084 10.429 27.5618 10.8409 28.1186 11.392C28.6811 11.9432 29.1186 12.6364 29.4311 13.4716C29.7436 14.3011 29.8999 15.2727 29.8999 16.3864V17.3835H18.8459V15.1335H26.4822C26.4822 14.6108 26.3686 14.1477 26.1413 13.7443C25.9141 13.3409 25.5987 13.0256 25.1953 12.7983C24.7976 12.5653 24.3345 12.4489 23.8061 12.4489C23.255 12.4489 22.7663 12.5767 22.3402 12.8324C21.9197 13.0824 21.5902 13.4205 21.3516 13.8466C21.1129 14.267 20.9908 14.7358 20.9851 15.2528V17.392C20.9851 18.0398 21.1044 18.5994 21.343 19.071C21.5874 19.5426 21.9311 19.9062 22.3743 20.1619C22.8175 20.4176 23.343 20.5455 23.951 20.5455C24.3544 20.5455 24.7237 20.4886 25.0589 20.375C25.3942 20.2614 25.6811 20.0909 25.9197 19.8636C26.1584 19.6364 26.3402 19.358 26.4652 19.0284L29.8232 19.25C29.6527 20.0568 29.3033 20.7614 28.7749 21.3636C28.2521 21.9602 27.576 22.4261 26.7464 22.7614C25.9226 23.0909 24.9709 23.2557 23.8913 23.2557Z" fill="#14532D"/>
<path d="M44.5909 11.1875C44.4716 10.7727 44.304 10.4062 44.0881 10.0881C43.8722 9.7642 43.608 9.49148 43.2955 9.26989C42.9886 9.04261 42.6364 8.86932 42.2386 8.75C41.8466 8.63068 41.4119 8.57102 40.9347 8.57102C40.0426 8.57102 39.2585 8.79261 38.5824 9.23579C37.9119 9.67898 37.3892 10.3239 37.0142 11.1705C36.6392 12.0114 36.4517 13.0398 36.4517 14.2557C36.4517 15.4716 36.6364 16.5057 37.0057 17.358C37.375 18.2102 37.8977 18.8608 38.5739 19.3097C39.25 19.7528 40.0483 19.9744 40.9688 19.9744C41.804 19.9744 42.517 19.8267 43.108 19.5312C43.7045 19.2301 44.1591 18.8068 44.4716 18.2614C44.7898 17.7159 44.9489 17.071 44.9489 16.3267L45.6989 16.4375H41.1989V13.6591H48.5028V15.858C48.5028 17.392 48.179 18.7102 47.5312 19.8125C46.8835 20.9091 45.9915 21.7557 44.8551 22.3523C43.7188 22.9432 42.4176 23.2386 40.9517 23.2386C39.3153 23.2386 37.8778 22.8778 36.6392 22.1562C35.4006 21.429 34.4347 20.3977 33.7415 19.0625C33.054 17.7216 32.7102 16.1307 32.7102 14.2898C32.7102 12.875 32.9148 11.6136 33.3239 10.5057C33.7386 9.39205 34.3182 8.44886 35.0625 7.67614C35.8068 6.90341 36.6733 6.31534 37.6619 5.91193C38.6506 5.50852 39.7216 5.30682 40.875 5.30682C41.8636 5.30682 42.7841 5.4517 43.6364 5.74148C44.4886 6.02557 45.2443 6.42898 45.9034 6.9517C46.5682 7.47443 47.1108 8.09659 47.5312 8.81818C47.9517 9.53409 48.2216 10.3239 48.3409 11.1875H44.5909ZM57.1214 23.2557C55.7976 23.2557 54.6527 22.9744 53.6868 22.4119C52.7266 21.8437 51.9851 21.054 51.4624 20.0426C50.9396 19.0256 50.6783 17.8466 50.6783 16.5057C50.6783 15.1534 50.9396 13.9716 51.4624 12.9602C51.9851 11.9432 52.7266 11.1534 53.6868 10.5909C54.6527 10.0227 55.7976 9.73864 57.1214 9.73864C58.4453 9.73864 59.5874 10.0227 60.5476 10.5909C61.5135 11.1534 62.2578 11.9432 62.7805 12.9602C63.3033 13.9716 63.5646 15.1534 63.5646 16.5057C63.5646 17.8466 63.3033 19.0256 62.7805 20.0426C62.2578 21.054 61.5135 21.8437 60.5476 22.4119C59.5874 22.9744 58.4453 23.2557 57.1214 23.2557ZM57.1385 20.4432C57.7408 20.4432 58.2436 20.2727 58.647 19.9318C59.0504 19.5852 59.3544 19.1136 59.5589 18.517C59.7692 17.9205 59.8743 17.2415 59.8743 16.4801C59.8743 15.7188 59.7692 15.0398 59.5589 14.4432C59.3544 13.8466 59.0504 13.375 58.647 13.0284C58.2436 12.6818 57.7408 12.5085 57.1385 12.5085C56.5305 12.5085 56.0192 12.6818 55.6044 13.0284C55.1953 13.375 54.8857 13.8466 54.6754 14.4432C54.4709 15.0398 54.3686 15.7188 54.3686 16.4801C54.3686 17.2415 54.4709 17.9205 54.6754 18.517C54.8857 19.1136 55.1953 19.5852 55.6044 19.9318C56.0192 20.2727 56.5305 20.4432 57.1385 20.4432ZM71.8402 23.2557C70.5163 23.2557 69.3714 22.9744 68.4055 22.4119C67.4453 21.8437 66.7038 21.054 66.1811 20.0426C65.6584 19.0256 65.397 17.8466 65.397 16.5057C65.397 15.1534 65.6584 13.9716 66.1811 12.9602C66.7038 11.9432 67.4453 11.1534 68.4055 10.5909C69.3714 10.0227 70.5163 9.73864 71.8402 9.73864C73.1641 9.73864 74.3061 10.0227 75.2663 10.5909C76.2322 11.1534 76.9766 11.9432 77.4993 12.9602C78.022 13.9716 78.2834 15.1534 78.2834 16.5057C78.2834 17.8466 78.022 19.0256 77.4993 20.0426C76.9766 21.054 76.2322 21.8437 75.2663 22.4119C74.3061 22.9744 73.1641 23.2557 71.8402 23.2557ZM71.8572 20.4432C72.4595 20.4432 72.9624 20.2727 73.3658 19.9318C73.7692 19.5852 74.0732 19.1136 74.2777 18.517C74.4879 17.9205 74.593 17.2415 74.593 16.4801C74.593 15.7188 74.4879 15.0398 74.2777 14.4432C74.0732 13.8466 73.7692 13.375 73.3658 13.0284C72.9624 12.6818 72.4595 12.5085 71.8572 12.5085C71.2493 12.5085 70.7379 12.6818 70.3232 13.0284C69.9141 13.375 69.6044 13.8466 69.3942 14.4432C69.1896 15.0398 69.0874 15.7188 69.0874 16.4801C69.0874 17.2415 69.1896 17.9205 69.3942 18.517C69.6044 19.1136 69.9141 19.5852 70.3232 19.9318C70.7379 20.2727 71.2493 20.4432 71.8572 20.4432ZM85.468 23.2131C84.4737 23.2131 83.5732 22.9574 82.7663 22.446C81.9652 21.929 81.3288 21.1705 80.8572 20.1705C80.3913 19.1648 80.1584 17.9318 80.1584 16.4716C80.1584 14.9716 80.3999 13.7244 80.8828 12.7301C81.3658 11.7301 82.0078 10.983 82.8089 10.4886C83.6158 9.98864 84.4993 9.73864 85.4595 9.73864C86.1925 9.73864 86.8033 9.86364 87.2919 10.1136C87.7862 10.358 88.1839 10.6648 88.4851 11.0341C88.7919 11.3977 89.0249 11.7557 89.1839 12.108H89.2947V5.54545H92.9169V23H89.3374V20.9034H89.1839C89.0135 21.267 88.772 21.6278 88.4595 21.9858C88.1527 22.3381 87.7521 22.6307 87.2578 22.8636C86.7692 23.0966 86.1726 23.2131 85.468 23.2131ZM86.6186 20.3239C87.2038 20.3239 87.6982 20.1648 88.1016 19.8466C88.5107 19.5227 88.8232 19.071 89.0391 18.4915C89.2607 17.9119 89.3714 17.233 89.3714 16.4545C89.3714 15.6761 89.2635 15 89.0476 14.4261C88.8317 13.8523 88.5192 13.4091 88.1101 13.0966C87.701 12.7841 87.2038 12.6278 86.6186 12.6278C86.022 12.6278 85.5192 12.7898 85.1101 13.1136C84.701 13.4375 84.3913 13.8864 84.1811 14.4602C83.9709 15.0341 83.8658 15.6989 83.8658 16.4545C83.8658 17.2159 83.9709 17.8892 84.1811 18.4744C84.397 19.054 84.7067 19.5085 85.1101 19.8381C85.5192 20.1619 86.022 20.3239 86.6186 20.3239Z" fill="#22C55E"/>
</svg>
