<svg xmlns="http://www.w3.org/2000/svg" viewBox="0 0 160 160" fill="none">
  <path
    d="M80 15C80 15 40 35 30 75C25 95 30 120 50 135C65 145 85 145 100 135C120 120 130 90 120 65C110 40 80 15 80 15Z"
    stroke="#22c55e"
    stroke-width="1.5"
    stroke-linecap="round"
  />
  <path d="M80 15C80 50 78 90 72 135" stroke="#22c55e" stroke-width="1.2" stroke-linecap="round" />
  <path d="M80 45C65 42 50 50 45 60" stroke="#22c55e" stroke-width="1" stroke-linecap="round" />
  <path d="M78 65C62 58 48 65 42 78" stroke="#22c55e" stroke-width="1" stroke-linecap="round" />
  <path d="M76 85C88 78 100 82 108 72" stroke="#22c55e" stroke-width="1" stroke-linecap="round" />
  <path d="M74 105C60 100 48 108 45 118" stroke="#22c55e" stroke-width="1" stroke-linecap="round" />
  <ellipse cx="60" cy="55" rx="5" ry="8" stroke="#22c55e" stroke-width="0.8" opacity="0.7" />
  <ellipse cx="90" cy="60" rx="4" ry="6" stroke="#22c55e" stroke-width="0.8" opacity="0.7" />
  <ellipse cx="58" cy="95" rx="5" ry="7" stroke="#22c55e" stroke-width="0.8" opacity="0.7" />
</svg>
