<svg xmlns="http://www.w3.org/2000/svg" viewBox="0 0 140 180" fill="none">
  <path d="M70 5C65 30 75 55 65 80C55 105 70 130 65 160C63 170 65 178 68 180" stroke="#22c55e" stroke-width="1.2" stroke-linecap="round" />
  <path d="M68 20C58 12 42 16 42 16C42 16 52 28 68 26" stroke="#22c55e" stroke-width="0.9" stroke-linecap="round" fill="#22c55e" fill-opacity="0.05" />
  <path d="M72 45C82 38 96 42 96 42C96 42 84 54 72 50" stroke="#22c55e" stroke-width="0.9" stroke-linecap="round" fill="#22c55e" fill-opacity="0.05" />
  <path d="M65 72C54 64 38 68 38 68C38 68 48 80 65 78" stroke="#22c55e" stroke-width="0.9" stroke-linecap="round" fill="#22c55e" fill-opacity="0.05" />
  <path d="M68 100C80 94 95 98 95 98C95 98 82 110 68 106" stroke="#22c55e" stroke-width="0.9" stroke-linecap="round" fill="#22c55e" fill-opacity="0.04" />
  <path d="M66 130C55 124 40 128 40 128C40 128 50 138 66 135" stroke="#22c55e" stroke-width="0.8" stroke-linecap="round" fill="#22c55e" fill-opacity="0.04" />
  <path d="M68 20C72 14 70 8 70 8" stroke="#22c55e" stroke-width="0.6" stroke-linecap="round" />
  <path d="M72 45C76 40 74 34 74 34" stroke="#22c55e" stroke-width="0.6" stroke-linecap="round" />
  <path d="M65 72C60 66 62 58 62 58" stroke="#22c55e" stroke-width="0.6" stroke-linecap="round" />
</svg>
