<svg xmlns="http://www.w3.org/2000/svg" viewBox="0 0 50 60" fill="none">
  <path d="M25 55C25 55 25 35 25 15" stroke="#22c55e" stroke-width="1" stroke-linecap="round" />
  <path d="M25 20C18 12 8 15 8 15C8 15 15 28 25 26" stroke="#22c55e" stroke-width="0.8" stroke-linecap="round" fill="#22c55e" fill-opacity="0.05" />
  <path d="M25 18C32 10 42 13 42 13C42 13 35 26 25 24" stroke="#22c55e" stroke-width="0.8" stroke-linecap="round" fill="#22c55e" fill-opacity="0.05" />
  <path d="M25 35C20 28 12 30 12 30C12 30 18 40 25 38" stroke="#22c55e" stroke-width="0.8" stroke-linecap="round" fill="#22c55e" fill-opacity="0.04" />
  <path d="M25 33C30 26 38 28 38 28C38 28 32 38 25 36" stroke="#22c55e" stroke-width="0.8" stroke-linecap="round" fill="#22c55e" fill-opacity="0.04" />
</svg>
