<svg xmlns="http://www.w3.org/2000/svg" viewBox="0 0 110 200" fill="none">
  <path d="M55 190C58 150 52 100 55 20" stroke="#22c55e" stroke-width="1.2" stroke-linecap="round" />
  <ellipse cx="40" cy="35" rx="12" ry="9" transform="rotate(-20 40 35)" stroke="#22c55e" stroke-width="1" fill="#22c55e" fill-opacity="0.05" />
  <ellipse cx="72" cy="50" rx="12" ry="9" transform="rotate(15 72 50)" stroke="#22c55e" stroke-width="1" fill="#22c55e" fill-opacity="0.05" />
  <ellipse cx="38" cy="70" rx="13" ry="9" transform="rotate(-25 38 70)" stroke="#22c55e" stroke-width="1" fill="#22c55e" fill-opacity="0.05" />
  <ellipse cx="74" cy="90" rx="12" ry="8" transform="rotate(20 74 90)" stroke="#22c55e" stroke-width="1" fill="#22c55e" fill-opacity="0.05" />
  <ellipse cx="40" cy="110" rx="11" ry="8" transform="rotate(-15 40 110)" stroke="#22c55e" stroke-width="1" fill="#22c55e" fill-opacity="0.04" />
  <ellipse cx="70" cy="130" rx="10" ry="7" transform="rotate(10 70 130)" stroke="#22c55e" stroke-width="0.8" fill="#22c55e" fill-opacity="0.04" />
  <ellipse cx="42" cy="150" rx="9" ry="7" transform="rotate(-10 42 150)" stroke="#22c55e" stroke-width="0.8" fill="#22c55e" fill-opacity="0.03" />
  <ellipse cx="65" cy="168" rx="8" ry="6" transform="rotate(8 65 168)" stroke="#22c55e" stroke-width="0.8" fill="#22c55e" fill-opacity="0.03" />
  <line x1="33" y1="30" x2="47" y2="40" stroke="#22c55e" stroke-width="0.5" opacity="0.5" />
  <line x1="65" y1="45" x2="79" y2="55" stroke="#22c55e" stroke-width="0.5" opacity="0.5" />
  <line x1="30" y1="64" x2="46" y2="76" stroke="#22c55e" stroke-width="0.5" opacity="0.5" />
  <line x1="66" y1="85" x2="82" y2="95" stroke="#22c55e" stroke-width="0.5" opacity="0.5" />
</svg>
