<svg xmlns="http://www.w3.org/2000/svg" viewBox="0 0 100 120" fill="none">
  <path
    d="M50 8C50 8 15 30 12 65C10 85 22 105 50 112C78 105 90 85 88 65C85 30 50 8 50 8Z"
    stroke="#22c55e"
    stroke-width="1.3"
    stroke-linecap="round"
    fill="#22c55e"
    fill-opacity="0.04"
  />
  <path d="M50 12C50 40 50 75 50 110" stroke="#22c55e" stroke-width="1.2" stroke-linecap="round" />
  <path d="M50 30C40 28 28 35 22 45" stroke="#22c55e" stroke-width="0.8" stroke-linecap="round" />
  <path d="M50 30C60 28 72 35 78 45" stroke="#22c55e" stroke-width="0.8" stroke-linecap="round" />
  <path d="M50 50C38 46 24 52 18 65" stroke="#22c55e" stroke-width="0.8" stroke-linecap="round" />
  <path d="M50 50C62 46 76 52 82 65" stroke="#22c55e" stroke-width="0.8" stroke-linecap="round" />
  <path d="M50 70C40 67 28 72 22 82" stroke="#22c55e" stroke-width="0.8" stroke-linecap="round" />
  <path d="M50 70C60 67 72 72 78 82" stroke="#22c55e" stroke-width="0.8" stroke-linecap="round" />
  <path d="M50 88C42 86 34 90 30 96" stroke="#22c55e" stroke-width="0.7" stroke-linecap="round" />
  <path d="M50 88C58 86 66 90 70 96" stroke="#22c55e" stroke-width="0.7" stroke-linecap="round" />
</svg>
